PathFileType	4	(X/Y/Z)	..\data\2014022\dynamic\2014022_C4_04.trc
DataRate	CameraRate	NumFrames	NumMarkers	Units	OrigDataRate	OrigDataStartFrame	OrigNumFrames
100.000000	100.000000	4	52	mm	100.000000	151	173
Frame#	Time	L_IAS			L_IPS			R_IPS			R_IAS			L_FTC			L_FLE			L_FME			L_FAX			L_TTC			L_FAL			L_TAM			L_FCC			L_FM1			L_FM2			L_FM5			R_FTC			R_FLE			R_FME			R_FAX			R_TTC			R_FAL			R_TAM			R_FCC			R_FM1			R_FM2			R_FM5			CV7			TV10			SXS			SJN			L_SIA			L_SRS			L_SAA			L_SAE			L_HLE			L_HME			L_UOA			L_RSP			L_UHE			L_HM2			L_HM5			R_SIA			R_SRS			R_SAA			R_SAE			R_HLE			R_HME			R_UOA			R_RSP			R_UHE			R_HM2			R_HM5			
		X1	Y1	Z1	X2	Y2	Z2	X3	Y3	Z3	X4	Y4	Z4	X5	Y5	Z5	X6	Y6	Z6	X7	Y7	Z7	X8	Y8	Z8	X9	Y9	Z9	X10	Y10	Z10	X11	Y11	Z11	X12	Y12	Z12	X13	Y13	Z13	X14	Y14	Z14	X15	Y15	Z15	X16	Y16	Z16	X17	Y17	Z17	X18	Y18	Z18	X19	Y19	Z19	X20	Y20	Z20	X21	Y21	Z21	X22	Y22	Z22	X23	Y23	Z23	X24	Y24	Z24	X25	Y25	Z25	X26	Y26	Z26	X27	Y27	Z27	X28	Y28	Z28	X29	Y29	Z29	X30	Y30	Z30	X31	Y31	Z31	X32	Y32	Z32	X33	Y33	Z33	X34	Y34	Z34	X35	Y35	Z35	X36	Y36	Z36	X37	Y37	Z37	X38	Y38	Z38	X39	Y39	Z39	X40	Y40	Z40	X41	Y41	Z41	X42	Y42	Z42	X43	Y43	Z43	X44	Y44	Z44	X45	Y45	Z45	X46	Y46	Z46	X47	Y47	Z47	X48	Y48	Z48	X49	Y49	Z49	X50	Y50	Z50	X51	Y51	Z51	X52	Y52	Z52	

152	1.51	765.4358520507814	937.612731933594	172.2524261474611	571.3877563476564	946.3023681640627	241.7283325195314	571.6398925781251	941.3399658203127	350.9674072265626	758.2517089843751	928.427917480469	418.7244873046877	680.7314453125001	876.319030761719	105.596519470215	630.2628173828126	451.825408935547	156.7257385253907	581.6293945312501	455.8047180175782	285.637420654297	592.7053833007814	406.0385742187501	151.1435394287111	649.7538452148439	385.5745544433595	219.0150146484376	532.8610839843751	64.56689453125001	219.4103088378907	546.8624877929689	78.79429626464845	306.021942138672	492.6794433593751	16.91111755371094	265.3862304687501	673.8184814453126	6.612247943878176	309.3743896484376	686.1811523437501	27.92370796203614	249.9668884277345	642.3585205078126	15.21412944793702	197.2808532714845	684.1151733398438	851.4415283203127	477.5680236816408	867.9248046875002	469.7177124023439	423.2558898925784	874.1243896484377	469.3513488769532	287.8905029296877	848.5805664062502	421.2454223632814	427.3048400878909	918.6043701171877	408.5017395019532	379.967498779297	817.1959228515627	74.26221466064455	400.001403808594	841.1143798828127	78.70644378662111	315.2542114257814	780.8875732421877	25.51450920104981	351.6819763183595	964.4561767578127	28.69562721252442	325.1258850097658	964.5466308593752	43.06134796142579	380.2130737304689	926.0749511718752	25.5895118713379	425.8899841308596	639.7456054687501	1424.07421875	279.2610778808595	552.3109741210939	1207.0126953125	280.9290771484376	782.0007934570315	1128.734497070313	292.0441894531252	751.7677001953126	1346.780395507813	284.9221496582033	547.7347412109376	1238.321899414063	197.3033752441407	591.8931274414064	1378.013549804688	217.5599517822267	630.7112426757814	1381.89404296875	147.7789154052736	682.2590332031251	1362.220092773438	101.640968322754	695.9910278320314	1044.089477539063	46.83187103271494	691.5135498046876	1032.974609375	137.3172149658204	687.7180175781251	1011.059387207031	80.61839294433604	880.3633422851565	867.7124023437502	83.56433868408216	825.003356933594	849.6043701171877	37.60153961181651	935.0010375976565	801.610778808594	68.9253845214845	840.7077636718752	765.6611328125001	45.84057998657237	541.7959594726564	1240.5009765625	366.1531066894532	593.8132934570314	1381.087646484375	352.3806152343751	624.1888427734376	1381.001586914063	432.3553466796877	670.5322265625	1378.966796875	466.8950500488283	609.1052856445312	1063.362060546875	514.2617797851565	621.1086425781251	1051.608276367188	433.1564025878908	600.2839965820312	1040.190673828125	480.7496032714845	721.4548950195312	845.5152587890627	555.5083618164065	646.5739135742188	838.3913574218752	558.3545532226565	745.3068237304688	760.8967285156251	578.7480468750002	647.9763793945312	755.3634643554689	547.5000000000002	
153	1.52	776.4114379882815	935.791198730469	171.9713287353517	582.9337158203126	944.154479980469	243.341278076172	584.3824462890626	939.588317871094	352.3983154296876	771.3606567382815	927.5960693359377	418.6296691894534	690.8326416015626	874.1497192382815	105.962242126465	636.2404174804689	451.0236816406251	157.5466461181642	588.6447753906251	455.5515136718751	286.6926879882814	598.0903930664064	405.813201904297	152.1174774169923	655.1365966796876	384.4585571289064	219.6160583496095	532.8589477539064	65.44144439697267	219.6032104492189	547.5143432617189	78.99497985839845	306.6100463867189	492.8019714355469	17.61551475524903	265.926971435547	673.8316650390626	6.520196914672853	309.5197143554689	686.2324829101564	27.88727569580079	250.0408630371095	642.2214355468751	15.41841983795166	197.5745697021486	698.96826171875	851.0354003906252	478.6593322753909	881.981872558594	468.6970520019532	424.0971679687502	886.4400024414065	467.3804626464845	288.5393371582033	864.4215087890627	418.9392395019532	427.9793701171877	935.0203247070315	409.6077575683595	380.8688049316408	854.059753417969	70.5310745239258	399.3022766113284	878.2007446289065	77.09921264648439	314.8133544921877	820.354675292969	20.82455062866211	350.4848937988283	1003.493591308594	32.20812606811524	324.1828002929689	1003.091857910156	45.90041732788087	379.5346984863283	965.408142089844	26.2589225769043	424.9010925292971	652.9727783203126	1422.173950195313	278.9114990234376	564.1895751953126	1205.635131835938	280.4238281250001	794.0207519531252	1126.61962890625	291.7118530273439	764.4007568359376	1344.96630859375	285.2810668945314	560.1827392578126	1237.344970703125	196.6319122314454	604.6630249023439	1376.811157226563	217.4162597656251	643.9451293945314	1380.849975585938	147.7693634033204	695.7973632812501	1361.22265625	101.9831008911134	713.6630249023439	1043.29345703125	47.23381805419931	708.2281494140626	1032.167724609375	137.7218475341798	705.8695068359376	1009.66015625	80.85869598388682	903.343688964844	872.791687011719	88.52236938476575	849.761169433594	852.498962402344	41.486728668213	960.3230590820315	808.6575317382815	76.23113250732435	868.205505371094	769.0208129882815	50.9389114379884	553.8513793945314	1238.724609375	365.5297851562501	606.1829833984376	1379.287231445313	352.1999816894532	636.2877197265626	1378.898071289063	432.294403076172	682.38330078125	1376.646850585938	466.9742126464845	618.847412109375	1061.462890625	513.854675292969	631.5634765625001	1049.422607421875	432.7771606445314	610.4251098632812	1038.274780273438	480.2659912109377	730.523681640625	843.2801513671877	556.0906982421877	655.654541015625	836.2644042968752	558.0972900390627	753.9371948242188	758.9031982421876	580.2288818359377	657.1190795898438	753.1814575195314	547.7368774414065	
154	1.53	787.524353027344	933.840026855469	171.8284149169923	594.6110229492189	941.9888305664065	244.9634399414064	597.2382202148439	937.7578735351565	353.862030029297	784.5704345703127	926.5478515625002	418.602966308594	701.1466674804689	872.039245605469	106.3897094726564	642.2677001953126	450.2391357421876	158.3917846679689	595.8347778320314	455.2617797851564	287.8323974609376	603.5010375976564	405.6152343750001	153.1501312255861	660.6174316406251	383.3378601074219	220.1931457519533	532.9666137695314	66.40248107910158	219.8567504882814	548.2725830078126	79.34945678710939	307.2065734863282	492.9605407714844	18.50509834289551	266.4950256347657	673.8704833984376	6.44575357437134	309.6412353515626	686.2665405273439	27.86775207519532	250.0989227294923	642.0432739257814	15.64699459075928	197.8790740966798	713.6388549804688	850.3775634765627	479.6661682128909	895.632263183594	467.3145751953126	425.0280456542971	898.405212402344	465.0879516601564	289.2952575683595	879.846862792969	416.4252319335939	428.682800292969	950.8621826171877	410.426727294922	381.863006591797	890.1180419921877	67.79467010498048	398.535339355469	914.3997802734377	76.50372314453126	314.3373413085939	859.0227661132815	17.2076587677002	349.1314086914064	1041.22509765625	36.76710510253907	323.0084533691408	1040.496948242188	49.74492263793947	378.6126708984377	1003.799743652344	27.90879631042481	423.6617431640627	666.3184814453126	1420.090698242188	278.424774169922	576.1959228515626	1204.119995117188	279.9607543945314	806.1533813476565	1124.457153320313	291.4786376953127	777.0866699218752	1343.075805664063	285.6670837402345	572.7600097656251	1236.1767578125	195.9349670410157	617.4837646484376	1375.452758789063	217.2737731933595	657.2185668945314	1379.66015625	147.7637329101564	709.3968505859376	1360.092529296875	102.3449249267579	731.3156127929689	1042.423828125	47.68673706054697	724.8089599609376	1031.204223632813	138.1190948486329	723.8782958984376	1008.207458496094	81.16177368164072	925.7130126953127	877.7473144531252	93.534393310547	873.940856933594	855.3673095703127	45.47552490234386	984.9060668945315	815.6715087890627	83.5369796752931	895.1294555664065	772.516540527344	56.0855407714845	565.9450683593751	1236.803955078125	364.9078979492189	618.5907592773439	1377.364135742188	352.0078735351564	648.3984375000001	1376.706298828125	432.2206115722658	694.2344360351562	1374.273559570313	467.0470275878908	628.7078857421875	1059.493774414063	513.4277954101565	642.1639404296876	1047.153442382813	432.3887023925783	620.7119140625	1036.287353515625	479.7762145996095	739.6766357421875	840.989929199219	556.7180786132815	664.8349609375	834.0618896484377	557.8288574218752	762.63427734375	756.8074340820314	581.6226196289065	666.343505859375	750.9537353515626	547.8775024414065	
155	1.54	798.7844238281252	931.8038330078127	171.8003692626954	606.4109497070314	939.8330688476565	246.6106262207033	610.2004394531251	935.868347167969	355.3739013671876	797.8926391601565	925.2737426757815	418.639099121094	711.6437377929689	870.0197753906252	106.909393310547	648.4082031250001	449.4875488281251	159.2698059082032	603.2059936523439	454.9677734375001	289.0505676269532	608.9962158203126	405.4600830078126	154.2344665527345	666.2265625000001	382.2386169433594	220.7685699462892	533.2211914062501	67.45816802978517	220.1747283935548	549.1376953125001	79.88103485107423	307.8010559082032	493.1539306640626	19.61307907104493	267.0730895996095	673.9385986328126	6.395545005798342	309.7349243164064	686.2824096679689	27.87019348144532	250.1432189941408	641.8334960937501	15.90220832824707	198.1892089843751	728.1038208007812	849.4424438476565	480.5904541015627	908.924987792969	465.617156982422	426.002624511719	910.0687255859377	462.5559997558595	290.1099548339845	894.8975219726565	413.759246826172	429.3887023925784	966.1716918945315	410.9724426269532	382.8836669921877	925.1264648437502	65.98542785644533	397.7515563964846	949.3870239257815	76.80288696289064	313.8488769531252	896.6165161132815	14.5732069015503	347.7082824707033	1077.38818359375	42.29390716552735	321.5767822265627	1076.50439453125	54.52379989624025	377.4153137207033	1041.020263671875	30.47476768493653	422.1642761230471	679.7665405273439	1417.866943359375	277.8316955566407	588.3663940429689	1202.492309570313	279.5460205078126	818.4026489257815	1122.27587890625	291.3564758300783	789.8284912109377	1341.136352539063	286.0867919921877	585.4620971679689	1234.848999023438	195.2389984130861	630.3598022460939	1373.96435546875	217.1399688720705	670.5286865234376	1378.34765625	147.768280029297	723.0551757812501	1358.859252929688	102.7286834716798	748.9293823242189	1041.500244140625	48.20109558105479	741.2375488281251	1030.097900390625	138.5074310302736	741.6988525390626	1006.721740722656	81.54359436035166	947.4401855468752	882.5407714843752	98.58064270019545	897.5142822265627	858.197204589844	49.53236389160168	1008.724426269531	822.6016845703127	90.79501342773452	921.4318847656252	776.1271972656252	61.23182296752942	578.0739135742189	1234.767944335938	364.2982788085939	631.0471191406251	1375.34619140625	351.8128662109376	660.5321044921876	1374.456787109375	432.1419677734377	706.1035766601562	1371.8798828125	467.1221008300784	638.7230834960938	1057.480346679688	512.9868164062502	652.9253540039064	1044.835571289063	432.008026123047	631.16455078125	1034.257202148438	479.2898559570314	748.915771484375	838.665222167969	557.3964843750002	674.115478515625	831.8113403320315	557.5561523437502	771.3947753906251	754.6199340820314	582.9248657226565	675.6417236328125	748.7124023437501	547.918640136719	
